# xmcd
#
# Track frame offsets:
#	150
#	16785
#	32087
#	50034
#	67712
#	89601
#	108130
#	125102
#	142859
#	171577
#	187987
#	205887
#	222363
#	242376
#	251457
#	270824
#	282906
#
# Disc length: 3977 seconds
#
# Revision: 0
# Processed by: cddbd v1.4PL0 Copyright (c) Steve Scherf et al.
# Submitted via: dBpowerAMP V4.0
#
DISCID=ea0f8711
DTITLE=Various Artist - Big shiny tunes 2
DYEAR=1900
DGENRE=
TTITLE0=Beautiful people
TTITLE1=Block rockin beats
TTITLE2=Breathe
TTITLE3=Drinking in la
TTITLE4=Fly
TTITLE5=Lady picture show
TTITLE6=my old self
TTITLE7=numb
TTITLE8=Paranoid android
TTITLE9=Precious declaration
TTITLE10=Push
TTITLE11=Remonte control
TTITLE12=Semi charmed
TTITLE13=Song
TTITLE14=Swallowed
TTITLE15=Temptation
TTITLE16=Walkin'
EXTD=
EXTT0=
EXTT1=
EXTT2=
EXTT3=
EXTT4=
EXTT5=
EXTT6=
EXTT7=
EXTT8=
EXTT9=
EXTT10=
EXTT11=
EXTT12=
EXTT13=
EXTT14=
EXTT15=
EXTT16=
PLAYORDER=
